# xmcd CD database file
#
# Track frame offsets:
#	150
#	15710
#	28400
#	46485
#	55685
#	73407
#	88622
#	100327
#	111587
#	129775
#
# Disc length: 1829 seconds
#
# Revision: 0
# Processed by: cddbd v1.5.1PL0 Copyright (c) Steve Scherf et al.
# Submitted via: CDex 1.50
#
DISCID=8c07230a
DTITLE=Julie Daraîche - Les 20 plus grands succès CD1
DYEAR=1900
DGENRE=Country
TTITLE0=Jambalaya
TTITLE1=Prière d'une mère
TTITLE2=Un verre sur la table
TTITLE3=Pardonner et oublier
TTITLE4=Que la lune est belle ce soir
TTITLE5=Mariée à l'église
TTITLE6=La prison
TTITLE7=Neige sur la bible de mon père
TTITLE8=Le dernier roman
TTITLE9=Diggy-di-gy-ly
EXTD=
EXTT0=
EXTT1=
EXTT2=
EXTT3=
EXTT4=
EXTT5=
EXTT6=
EXTT7=
EXTT8=
EXTT9=
PLAYORDER=
